# File created by Blade
# Date/Time:  Wed Apr 08 14:47:20 2015
# Frame Rate: 120.000 fps
#------------------------------------------------------
:FULLY-SPECIFIED
:DEGREES
4079
root 2.529952 34.226884 15.734842 -18.020081 30.863802 -35.113743
Spine 0.751174 -11.067292 18.075665
Head 5.840893 -24.645673 18.660016
LeftShoulder -11.863310 44.081895 13.247452
LeftArm 68.231108 26.131457 -55.396727
LeftForeArm 5.039086 -0.000000 92.368717
LeftHand 7.883439 -0.000000 0.636914
LeftHandThumb1 -26.253704 0.000000 33.147579
RightShoulder -7.651711 -15.037337 -12.822265
RightArm 10.314622 -27.200688 82.545097
RightForeArm -6.850674 -0.000000 109.433099
RightHand 2.639735 -0.000000 15.023811
RightHandThumb1 -24.326973 -0.000000 -32.862282
LeftUpLeg -5.100257 1.508628 24.206006
LeftLeg 10.639567 -0.000000 -0.000000
LeftFoot -7.422619 10.421037 -10.170890
LeftToeBase -5.443819 -0.000000 0.000000
RightUpLeg -59.175205 -24.361404 -37.650905
RightLeg 31.147079 -0.000000 -0.000000
RightFoot 15.812080 -19.484818 -4.977063
RightToeBase 8.268031 -0.000000 -0.000000
4080
root 2.543789 34.230310 15.760738 -17.968045 30.675381 -35.134493
Spine 0.655870 -10.821545 18.191200
Head 5.897729 -24.756360 18.598486
LeftShoulder -12.029871 44.263365 13.071217
LeftArm 68.033442 26.161350 -55.315538
LeftForeArm 5.147557 -0.000000 92.616789
LeftHand 7.843777 -0.000000 0.617293
LeftHandThumb1 -26.253704 0.000000 33.147579
RightShoulder -7.619290 -14.978603 -12.859514
RightArm 10.359828 -27.386604 82.521472
RightForeArm -6.763106 -0.000000 109.547312
RightHand 2.677338 -0.000000 15.130720
RightHandThumb1 -24.326973 -0.000000 -32.862282
LeftUpLeg -4.950275 1.190266 24.272722
LeftLeg 10.505838 -0.000000 -0.000000
LeftFoot -7.463019 10.969026 -10.065860
LeftToeBase -5.578414 -0.000000 0.000000
RightUpLeg -59.298387 -24.697868 -37.724987
RightLeg 29.500479 -0.000000 -0.000000
RightFoot 14.623616 -19.832934 -5.282106
RightToeBase 8.182683 -0.000000 -0.000000
4081
root 2.555534 34.228541 15.785015 -17.780452 30.586911 -35.097362
Spine 0.406088 -10.600737 18.237117
Head 5.972231 -24.896483 18.520942
LeftShoulder -12.158916 44.449461 12.945725
LeftArm 67.770884 26.187452 -55.321267
LeftForeArm 5.173652 -0.000000 92.878260
LeftHand 7.755126 -0.000000 0.446590
LeftHandThumb1 -26.253704 0.000000 33.147579
RightShoulder -7.609100 -14.975325 -12.902784
RightArm 10.446481 -27.606499 82.485781
RightForeArm -6.753955 0.000000 109.644020
RightHand 2.730535 -0.000000 15.193422
RightHandThumb1 -24.326973 -0.000000 -32.862282
LeftUpLeg -4.964958 0.830623 24.243798
LeftLeg 10.422127 -0.000000 -0.000000
LeftFoot -7.523944 11.593521 -9.885518
LeftToeBase -5.653320 -0.000000 0.000000
RightUpLeg -59.539013 -25.156368 -37.850482
RightLeg 28.262753 -0.000000 -0.000000
RightFoot 13.753293 -19.909922 -5.389111
RightToeBase 8.151736 -0.000000 -0.000000
4082
root 2.565809 34.227542 15.808208 -17.710864 30.461410 -35.108544
Spine 0.293632 -10.424500 18.325251
Head 5.993610 -24.990290 18.436691
LeftShoulder -12.311219 44.632002 12.789224
LeftArm 67.533951 26.169742 -55.338526
LeftForeArm 5.282037 -0.000000 93.074415
LeftHand 7.774412 -0.000000 0.457689
LeftHandThumb1 -26.253704 0.000000 33.147579
RightShoulder -7.565010 -14.902001 -12.964197
RightArm 10.548841 -27.840699 82.415542
RightForeArm -6.736935 0.000000 109.742587
RightHand 2.668937 -0.000000 15.211257
RightHandThumb1 -24.326973 -0.000000 -32.862282
LeftUpLeg -4.905486 0.441674 24.265094
LeftLeg 10.381015 -0.000000 -0.000000
LeftFoot -7.623244 12.226071 -9.768218
LeftToeBase -5.695636 -0.000000 0.000000
RightUpLeg -59.826893 -25.531948 -37.891770
RightLeg 27.456672 -0.000000 -0.000000
RightFoot 13.204895 -19.862317 -5.290771
RightToeBase 8.137524 -0.000000 -0.000000
4083
root 2.569162 34.225802 15.829163 -17.682285 30.345002 -35.156254
Spine 0.228606 -10.304510 18.431603
Head 5.975352 -25.047488 18.352984
LeftShoulder -12.482660 44.791725 12.628258
LeftArm 67.267411 26.117810 -55.408725
LeftForeArm 5.313335 -0.000000 93.279265
LeftHand 7.702898 -0.000000 0.458612
LeftHandThumb1 -26.253704 0.000000 33.147579
RightShoulder -7.473865 -14.805434 -13.050105
RightArm 10.607254 -28.003703 82.417296
RightForeArm -6.650591 0.000000 109.852937
RightHand 2.625228 -0.000000 15.366420
RightHandThumb1 -24.326973 -0.000000 -32.862282
LeftUpLeg -4.877146 0.048873 24.314356
LeftLeg 10.403828 -0.000000 -0.000000
LeftFoot -7.752263 12.862082 -9.574528
LeftToeBase -5.678468 -0.000000 0.000000
RightUpLeg -60.199110 -25.900563 -37.851162
RightLeg 27.083978 -0.000000 -0.000000
RightFoot 12.928774 -19.722829 -5.150360
RightToeBase 8.167468 -0.000000 -0.000000
4084
root 2.566213 34.225912 15.851318 -17.749237 30.213025 -35.312549
Spine 0.226343 -10.211257 18.629076
Head 5.893642 -25.082537 18.281861
LeftShoulder -12.637245 44.927160 12.474662
LeftArm 66.993067 26.034260 -55.543120
LeftForeArm 5.329028 -0.000000 93.435765
LeftHand 7.661560 -0.000000 0.427388
LeftHandThumb1 -26.253704 0.000000 33.147579
RightShoulder -7.394352 -14.658173 -13.161886
RightArm 10.687693 -28.209588 82.421996
RightForeArm -6.724619 0.000000 109.889037
RightHand 2.719034 0.000000 15.376321
RightHandThumb1 -24.326973 -0.000000 -32.862282
LeftUpLeg -4.855203 -0.310841 24.470555
LeftLeg 10.500377 -0.000000 -0.000000
LeftFoot -7.908832 13.438583 -9.427106
LeftToeBase -5.745307 -0.000000 0.000000
RightUpLeg -60.631390 -26.222611 -37.679601
RightLeg 27.165205 -0.000000 -0.000000
RightFoot 12.821385 -19.559415 -4.956620
RightToeBase 8.507072 -0.000000 -0.000000
4085
root 2.559612 34.226013 15.873282 -17.873684 30.082742 -35.482092
Spine 0.297648 -10.142557 18.816360
Head 5.778341 -25.111696 18.231474
LeftShoulder -12.758084 45.054090 12.350327
LeftArm 66.698862 25.935260 -55.743904
LeftForeArm 5.312885 0.000000 93.589375
LeftHand 7.582411 0.000000 0.480343
LeftHandThumb1 -26.253704 0.000000 33.147579
RightShoulder -7.332592 -14.561625 -13.246522
RightArm 10.825309 -28.374857 82.373961
RightForeArm -6.618108 0.000000 109.989511
RightHand 2.607004 -0.000000 15.445849
RightHandThumb1 -24.326973 -0.000000 -32.862282
LeftUpLeg -4.814872 -0.652715 24.638547
LeftLeg 10.631365 -0.000000 -0.000000
LeftFoot -8.045401 14.017790 -9.216491
LeftToeBase -5.815141 -0.000000 0.000000
RightUpLeg -61.124605 -26.484719 -37.465346
RightLeg 27.697845 -0.000000 -0.000000
RightFoot 12.839802 -19.429553 -4.719080
RightToeBase 8.577419 -0.000000 -0.000000
4086
root 2.545827 34.228251 15.896015 -18.074638 29.931089 -35.726784
Spine 0.436549 -10.091793 19.052872
Head 5.623910 -25.125217 18.212658
LeftShoulder -12.873938 45.164240 12.236023
LeftArm 66.409977 25.801514 -55.993220
LeftForeArm 5.321803 -0.000000 93.683508
LeftHand 7.642920 -0.000000 0.440723
LeftHandThumb1 -26.253704 0.000000 33.147579
RightShoulder -7.209280 -14.426321 -13.341147
RightArm 10.933341 -28.530954 82.354983
RightForeArm -6.824469 0.000000 110.023769
RightHand 2.839596 -0.000000 15.334015
RightHandThumb1 -24.326973 -0.000000 -32.862282
LeftUpLeg -4.762229 -0.950873 24.888323
LeftLeg 10.793015 -0.000000 -0.000000
LeftFoot -8.192215 14.526636 -9.031445
LeftToeBase -5.847730 -0.000000 0.000000
RightUpLeg -61.723688 -26.708908 -37.104405
RightLeg 28.709908 -0.000000 -0.000000
RightFoot 12.907517 -19.328081 -4.464215
RightToeBase 8.647505 -0.000000 -0.000000
4087
root 2.528352 34.231928 15.921408 -18.385588 29.811422 -36.027297
Spine 0.669985 -10.090108 19.303101
Head 5.410563 -25.175055 18.216608
LeftShoulder -12.917827 45.185752 12.171976
LeftArm 66.075332 25.663478 -56.260203
LeftForeArm 5.154512 0.000000 93.804363
LeftHand 7.509966 -0.000000 0.443563
LeftHandThumb1 -26.253704 0.000000 33.147579
RightShoulder -7.138572 -14.280598 -13.400616
RightArm 11.061462 -28.642300 82.292915
RightForeArm -6.820837 -0.000000 110.116230
RightHand 2.810734 -0.000000 15.414694
RightHandThumb1 -24.326973 -0.000000 -32.862282
LeftUpLeg -4.692182 -1.204689 25.183540
LeftLeg 11.018838 -0.000000 -0.000000
LeftFoot -8.332922 14.928114 -8.810757
LeftToeBase -5.804762 -0.000000 0.000000
RightUpLeg -62.314336 -26.911989 -36.661023
RightLeg 30.117911 -0.000000 -0.000000
RightFoot 12.954400 -19.215733 -4.232575
RightToeBase 8.657412 -0.000000 -0.000000
4088
root 2.507553 34.235399 15.945351 -18.704288 29.698130 -36.302736
Spine 0.943348 -10.093932 19.503498
Head 5.167313 -25.211914 18.291500
LeftShoulder -12.964784 45.249067 12.111678
LeftArm 65.820549 25.472504 -56.501950
LeftForeArm 4.920067 -0.000000 93.874517
LeftHand 7.553904 -0.000000 0.454525
LeftHandThumb1 -26.253704 0.000000 33.147579
RightShoulder -7.074967 -14.121173 -13.433930
RightArm 11.207202 -28.755005 82.216448
RightForeArm -6.840611 0.000000 110.189869
RightHand 2.823267 -0.000000 15.440794
RightHandThumb1 -24.326973 -0.000000 -32.862282
LeftUpLeg -4.614545 -1.382761 25.462581
LeftLeg 11.252818 -0.000000 -0.000000
LeftFoot -8.458596 15.226632 -8.632968
LeftToeBase -5.867004 -0.000000 0.000000
RightUpLeg -62.956544 -27.034829 -36.235180
RightLeg 31.890841 -0.000000 -0.000000
RightFoot 13.007631 -19.241114 -3.887212
RightToeBase 8.828900 -0.000000 -0.000000
4089
root 2.481581 34.238505 15.968154 -19.038680 29.646144 -36.591658
Spine 1.223205 -10.149258 19.679234
Head 4.906493 -25.248843 18.377245
LeftShoulder -12.982783 45.254511 12.075163
LeftArm 65.524205 25.263426 -56.794951
LeftForeArm 4.858650 -0.000000 93.942011
LeftHand 7.540635 0.000000 0.501975
LeftHandThumb1 -26.253704 0.000000 33.147579
RightShoulder -7.030861 -13.959716 -13.462370
RightArm 11.329995 -28.870355 82.155409
RightForeArm -6.828768 -0.000000 110.262412
RightHand 2.836068 -0.000000 15.386340
RightHandThumb1 -24.326973 -0.000000 -32.862282
LeftUpLeg -4.583506 -1.549407 25.749999
LeftLeg 11.524366 -0.000000 -0.000000
LeftFoot -8.578431 15.409846 -8.485070
LeftToeBase -5.953607 -0.000000 0.000000
RightUpLeg -63.622096 -27.173351 -35.788040
RightLeg 33.992153 -0.000000 -0.000000
RightFoot 13.131175 -19.248529 -3.594244
RightToeBase 8.744206 -0.000000 -0.000000
4090
root 2.455693 34.240875 15.994172 -19.462754 29.642594 -36.890576
Spine 1.583202 -10.261497 19.822871
Head 4.620861 -25.303603 18.494302
LeftShoulder -12.975400 45.232042 12.051735
LeftArm 65.253741 25.043737 -57.058590
LeftForeArm 4.654114 -0.000000 94.020878
LeftHand 7.493384 -0.000000 0.640700
LeftHandThumb1 -26.253704 0.000000 33.147579
RightShoulder -6.994268 -13.815875 -13.478675
RightArm 11.465071 -28.947453 82.091749
RightForeArm -6.836566 -0.000000 110.349624
RightHand 2.825882 -0.000000 15.349874
RightHandThumb1 -24.326973 -0.000000 -32.862282
LeftUpLeg -4.489861 -1.686940 26.034477
LeftLeg 11.774783 -0.000000 -0.000000
LeftFoot -8.665711 15.491650 -8.240234
LeftToeBase -6.000275 -0.000000 0.000000
RightUpLeg -64.304253 -27.330686 -35.271692
RightLeg 36.440648 -0.000000 -0.000000
RightFoot 13.252140 -19.192884 -3.226874
RightToeBase 8.798532 -0.000000 -0.000000
4091
root 2.429301 34.245326 16.019559 -19.902567 29.651404 -37.213392
Spine 1.938693 -10.386213 19.972438
Head 4.355602 -25.354082 18.634681
LeftShoulder -12.966566 45.244927 12.011382
LeftArm 65.050894 24.781148 -57.279761
LeftForeArm 4.450184 -0.000000 94.080203
LeftHand 7.529694 -0.000000 0.756163
LeftHandThumb1 -26.253704 0.000000 33.147579
RightShoulder -6.904210 -13.701370 -13.483023
RightArm 11.554380 -28.934518 82.043234
RightForeArm -6.749172 -0.000000 110.467906
RightHand 2.804152 -0.000000 15.385471
RightHandThumb1 -24.326973 -0.000000 -32.862282
LeftUpLeg -4.396902 -1.762865 26.341963
LeftLeg 12.008393 -0.000000 -0.000000
LeftFoot -8.716267 15.479814 -8.009497
LeftToeBase -6.131258 -0.000000 0.000000
RightUpLeg -65.007964 -27.490101 -34.673555
RightLeg 39.084478 -0.000000 -0.000000
RightFoot 13.393861 -19.172619 -2.733250
RightToeBase 8.970161 -0.000000 -0.000000
